<svg width="106" height="52" viewBox="0 0 106 52" fill="none" xmlns="http://www.w3.org/2000/svg">
<path fill-rule="evenodd" clip-rule="evenodd" d="M81.2278 51.382L81.486 3.48128C81.4951 1.8003 82.8651 0.430114 84.5461 0.420881C86.2271 0.411647 87.5824 1.76686 87.5734 3.44784L87.3152 51.3486L81.2278 51.382Z" fill="#0066FF"/>
<path fill-rule="evenodd" clip-rule="evenodd" d="M71.4379 51.4358L71.6091 19.6727C71.6181 17.9917 72.9882 16.6215 74.6691 16.6123C76.3501 16.6031 77.7055 17.9583 77.6964 19.6392L77.5252 51.4023L71.4379 51.4358Z" fill="#96C0FF"/>
<path fill-rule="evenodd" clip-rule="evenodd" d="M63.4101 51.4803L63.6325 10.2244C63.6416 8.54346 65.0116 7.17328 66.6926 7.16404C68.3736 7.15481 69.7289 8.51003 69.7199 10.191L69.4975 51.4469L63.4101 51.4803Z" fill="#0066FF"/>
<path fill-rule="evenodd" clip-rule="evenodd" d="M53.6218 51.5338L53.7419 29.2635C53.7509 27.5825 55.121 26.2123 56.802 26.2031C58.4829 26.1939 59.8383 27.5491 59.8292 29.2301L59.7092 51.5004L53.6218 51.5338Z" fill="#96C0FF"/>
<path fill-rule="evenodd" clip-rule="evenodd" d="M45.5907 51.5781L45.779 16.6507C45.788 14.9697 47.1581 13.5995 48.8391 13.5903C50.52 13.5811 51.8754 14.9363 51.8663 16.6173L51.6781 51.5446L45.5907 51.5781Z" fill="#0066FF"/>
<path fill-rule="evenodd" clip-rule="evenodd" d="M35.802 51.6317L35.9391 26.1971C35.9482 24.5161 37.3182 23.1459 38.9992 23.1367C40.6802 23.1275 42.0356 24.4827 42.0265 26.1637L41.8894 51.5983L35.802 51.6317Z" fill="#96C0FF"/>
<path fill-rule="evenodd" clip-rule="evenodd" d="M27.772 51.6758L28.0114 7.25569C28.0205 5.57471 29.3905 4.20453 31.0715 4.19529C32.7525 4.18606 34.1078 5.54128 34.0988 7.22226L33.8593 51.6423L27.772 51.6758Z" fill="#0066FF"/>
<path fill-rule="evenodd" clip-rule="evenodd" d="M17.9838 51.7296L18.1891 13.638C18.1982 11.957 19.5682 10.5869 21.2492 10.5776C22.9302 10.5684 24.2856 11.9236 24.2765 13.6046L24.0712 51.6962L17.9838 51.7296Z" fill="#96C0FF"/>
<path fill-rule="evenodd" clip-rule="evenodd" d="M98.9773 51.2848L99.2352 3.45479C99.2444 1.73472 100.646 0.332673 102.366 0.323225C104.086 0.313777 105.473 1.70051 105.464 3.42057L105.206 51.2506L98.9773 51.2848Z" fill="#0066FF"/>
<path fill-rule="evenodd" clip-rule="evenodd" d="M89.1878 51.3384L89.3074 29.1389C89.3167 27.4188 90.7186 26.0168 92.4387 26.0073C94.1587 25.9979 95.5456 27.3846 95.5363 29.1047L95.4167 51.3042L89.1878 51.3384Z" fill="#96C0FF"/>
<path fill-rule="evenodd" clip-rule="evenodd" d="M9.95257 51.7736L10.1579 13.682C10.167 12.001 11.537 10.6308 13.218 10.6216C14.8989 10.6123 16.2543 11.9675 16.2452 13.6485L16.0399 51.7401L9.95257 51.7736Z" fill="#0066FF"/>
<path fill-rule="evenodd" clip-rule="evenodd" d="M0.162848 51.8273L0.282892 29.557C0.291953 27.876 1.662 26.5058 3.34297 26.4966C5.02395 26.4873 6.3793 27.8425 6.37024 29.5235L6.2502 51.7939L0.162848 51.8273Z" fill="#96C0FF"/>
</svg>
