<svg width="1276" height="1340" viewBox="0 0 1276 1340" fill="none" xmlns="http://www.w3.org/2000/svg">
<path fill-rule="evenodd" clip-rule="evenodd" d="M621.926 117.211C731.878 102.197 853.174 120.821 937.832 192.599C1020.39 262.598 1019.08 384.765 1057.06 486.143C1097.49 594.039 1181.77 690.536 1167.24 804.843C1151.51 928.611 1076.39 1041.14 976.935 1116.42C876.349 1192.55 744.49 1247.38 621.926 1217.59C505.417 1189.26 463.487 1048.93 373.456 969.714C295.796 901.381 174.716 881.103 132.28 786.746C88.4321 689.251 107.033 571.989 150.697 474.411C191.731 382.709 282.975 331.767 363.022 271.09C445.039 208.92 519.97 131.133 621.926 117.211Z" stroke="#F1F3FE" stroke-width="3.48028"/>
<path fill-rule="evenodd" clip-rule="evenodd" d="M629.139 351.148C692.643 342.477 762.699 353.233 811.595 394.689C859.279 435.118 858.518 505.677 880.458 564.23C903.808 626.546 952.487 682.28 944.094 748.299C935.006 819.783 891.622 884.775 834.179 928.252C776.084 972.223 699.927 1003.89 629.139 986.684C561.847 970.326 537.63 889.276 485.632 843.523C440.778 804.056 370.847 792.344 346.337 737.847C321.012 681.538 331.755 613.811 356.974 557.454C380.674 504.49 433.373 475.068 479.606 440.023C526.975 404.116 570.253 359.189 629.139 351.148Z" stroke="#F1F3FE" stroke-width="2.01008"/>
<path fill-rule="evenodd" clip-rule="evenodd" d="M619.619 7.79351C751.563 -10.2237 897.118 12.1254 998.709 98.2591C1097.78 182.258 1096.2 328.859 1141.79 450.513C1190.3 579.989 1291.44 695.786 1274 832.954C1255.12 981.477 1164.98 1116.51 1045.63 1206.84C924.928 1298.2 766.697 1364 619.619 1328.25C479.808 1294.26 429.492 1125.86 321.455 1030.8C228.263 948.801 82.9658 924.467 32.0421 811.239C-20.5756 694.244 1.74576 553.529 54.1422 436.435C103.384 326.392 212.877 265.262 308.934 192.449C407.354 117.845 497.272 24.5002 619.619 7.79351Z" stroke="#F1F3FE" stroke-width="3.48028"/>
<path fill-rule="evenodd" clip-rule="evenodd" d="M627.806 287.953C704.012 277.547 788.08 290.455 846.755 340.203C903.976 388.718 903.063 473.389 929.391 543.652C957.411 618.432 1015.83 685.312 1005.75 764.536C994.849 850.317 942.787 928.307 873.856 980.48C804.142 1033.25 712.753 1071.25 627.806 1050.6C547.057 1030.97 517.996 933.709 455.598 878.805C401.773 831.445 317.855 817.39 288.443 751.994C258.053 684.422 270.945 603.15 301.207 535.521C329.648 471.964 392.887 436.657 448.366 394.603C505.21 351.515 557.143 297.602 627.806 287.953Z" stroke="#F1F3FE" stroke-width="2.01008"/>
</svg>
